<svg width="167" height="49" viewBox="0 0 167 49" fill="none" xmlns="http://www.w3.org/2000/svg">
<path d="M5.09878 48.228V20.5697H0.650146V14.0312H13.2748V48.228H5.09878Z" fill="#59BA50"/>
<path d="M44.621 14.0273V48.2786H36.4449V20.5658H32.0146V14.0273H44.621Z" fill="#59BA50"/>
<path d="M89.6964 48.2465V26.8031C89.6964 22.3182 87.6653 20.0648 83.5773 20.0648C82.334 20.0824 81.121 20.4465 80.078 21.1152C79.0773 21.6834 78.2616 22.5219 77.7267 23.5321V48.2029H69.6316V25.5638C69.6316 23.8919 69.1128 22.5544 68.053 21.5659C66.9933 20.5773 65.4994 20.0685 63.5786 20.0685C62.5631 20.0685 61.4555 20.4501 60.267 21.1842C59.2168 21.7891 58.3266 22.6311 57.6692 23.6412V48.2211H49.5741V14.057H55.1376L56.7861 17.07C59.0233 14.6386 61.9375 13.4355 65.481 13.4355C70.0658 13.4355 73.5209 14.6604 75.8685 17.1354C77.0294 15.9056 78.4807 14.9791 80.0927 14.4387C81.8233 13.7839 83.6596 13.444 85.5127 13.4355C89.3739 13.4355 92.3776 14.5259 94.5241 16.7066C96.6693 18.8873 97.729 21.8821 97.729 25.6946V48.2465H89.6964Z" fill="#59BA50"/>
<path d="M105.165 48.228V20.5697H100.742V14.0312H113.341V48.228H105.165Z" fill="#59BA50"/>
<path d="M26.0804 0.783203V41.7147H30.529V48.2713H17.9043V0.783203H26.0804Z" fill="#59BA50"/>
<path d="M134.731 42.1406C132.788 42.1406 131.419 41.6245 130.665 40.6214C129.911 39.6183 129.491 37.8774 129.491 35.4241V20.4573H138.999V14.0316H129.491V14.0098H121.396V14.0316H117.407V20.4573H121.403V37.7683C121.403 41.3156 122.329 44.0584 124.181 45.9968C126.021 47.9158 128.678 48.9044 132.133 48.9044C135.588 48.9044 138.274 48.5918 140.151 47.9449V40.6141C138.523 41.6129 136.647 42.1464 134.731 42.1551V42.1406Z" fill="#59BA50"/>
<path d="M142.635 46.0221L145.501 39.6618C147.81 41.5163 150.701 42.5186 153.677 42.4967C156.816 42.4967 158.398 41.3809 158.398 39.1711C158.415 38.5688 158.296 37.9702 158.05 37.4189C157.804 36.8676 157.436 36.3773 156.974 35.9837C156.025 35.1587 154.174 34.1665 151.455 33.0398C145.494 30.5829 142.491 27.1701 142.491 22.7542C142.491 19.7885 143.643 17.4915 145.924 15.8487C148.206 14.2059 151.102 13.3555 154.671 13.3555C158.206 13.3548 161.691 14.1884 164.834 15.7869L162.508 21.9946C160.746 20.5008 158.284 19.7667 155.149 19.7667C152.327 19.7667 150.925 20.8825 150.925 23.0886C150.925 23.9609 151.378 24.7386 152.305 25.4546C153.232 26.1706 155.215 27.1047 158.244 28.2859C161.272 29.4671 163.461 30.8954 164.815 32.5927C166.171 34.3349 166.88 36.4839 166.825 38.6805C166.825 41.8498 165.635 44.3491 163.255 46.1784C160.886 47.9956 157.633 48.897 153.545 48.897C151.676 48.9472 149.809 48.7603 147.989 48.3409C146.13 47.7503 144.337 46.9733 142.639 46.0221H142.635Z" fill="#59BA50"/>
</svg>
