<svg width="24" height="18" viewBox="0 0 24 18" fill="none" xmlns="http://www.w3.org/2000/svg">
<path d="M23.7609 4.16465C23.7609 4.16465 23.5266 2.50996 22.8047 1.7834C21.8906 0.827149 20.8688 0.822461 20.4 0.766211C17.0438 0.522461 12.0047 0.522461 12.0047 0.522461H11.9953C11.9953 0.522461 6.95625 0.522461 3.6 0.766211C3.13125 0.822461 2.10938 0.827149 1.19531 1.7834C0.473438 2.50996 0.24375 4.16465 0.24375 4.16465C0.24375 4.16465 0 6.10996 0 8.05059V9.86934C0 11.81 0.239062 13.7553 0.239062 13.7553C0.239062 13.7553 0.473437 15.41 1.19062 16.1365C2.10469 17.0928 3.30469 17.06 3.83906 17.1631C5.76094 17.3459 12 17.4021 12 17.4021C12 17.4021 17.0438 17.3928 20.4 17.1537C20.8688 17.0975 21.8906 17.0928 22.8047 16.1365C23.5266 15.41 23.7609 13.7553 23.7609 13.7553C23.7609 13.7553 24 11.8146 24 9.86934V8.05059C24 6.10996 23.7609 4.16465 23.7609 4.16465ZM9.52031 12.0771V5.33184L16.0031 8.71621L9.52031 12.0771Z" fill="#98A2B3"/>
</svg>
